HIERARCHY
ROOT Hips
{
	OFFSET -14.64140 90.27770 -84.91600
	CHANNELS 6 Xposition Yposition Zposition Zrotation Xrotation Yrotation
	JOINT Spine
	{
		OFFSET 0.00000 13.20850 -1.60436
		CHANNELS 3 Zrotation Xrotation Yrotation
		JOINT Spine1
		{
			OFFSET 0.00000 8.61716 0.00000
			CHANNELS 3 Zrotation Xrotation Yrotation
			JOINT Spine2
			{
				OFFSET 0.00000 8.61717 0.00000
				CHANNELS 3 Zrotation Xrotation Yrotation
				JOINT Spine3
				{
					OFFSET 0.00000 8.61717 0.00000
					CHANNELS 3 Zrotation Xrotation Yrotation
					JOINT Neck
					{
						OFFSET 0.00000 11.07920 1.10792
						CHANNELS 3 Zrotation Xrotation Yrotation
						JOINT Neck1
						{
							OFFSET 0.00000 7.08032 0.00000
							CHANNELS 3 Zrotation Xrotation Yrotation
							JOINT Head
							{
								OFFSET 0.00000 7.08031 0.00000
								CHANNELS 3 Zrotation Xrotation Yrotation
								End site
								{
									OFFSET 0.00000 0.00000 0.00000
								}
							}
						}
					}
					JOINT RightShoulder
					{
						OFFSET -0.01000 7.91373 5.19711
						CHANNELS 3 Zrotation Xrotation Yrotation
						JOINT RightArm
						{
							OFFSET -18.41580 0.00000 0.00000
							CHANNELS 3 Zrotation Xrotation Yrotation
							JOINT RightForeArm
							{
								OFFSET -29.11090 0.00000 0.00000
								CHANNELS 3 Zrotation Xrotation Yrotation
								JOINT RightHand
								{
									OFFSET -24.65040 0.00000 0.00000
									CHANNELS 3 Zrotation Xrotation Yrotation
									JOINT RightHandThumb1
									{
										OFFSET -5.35114 -0.85590 3.97906
										CHANNELS 3 Zrotation Xrotation Yrotation
										JOINT RightHandThumb2
										{
											OFFSET -4.52789 0.00000 0.00000
											CHANNELS 3 Zrotation Xrotation Yrotation
											JOINT RightHandThumb3
											{
												OFFSET -2.46976 0.00000 0.00000
												CHANNELS 3 Zrotation Xrotation Yrotation
												End site
												{
													OFFSET 0.00000 0.00000 0.00000
												}
											}
										}
									}
									JOINT RightHandIndex1
									{
										OFFSET -14.26970 0.00000 2.88139
										CHANNELS 3 Zrotation Xrotation Yrotation
										JOINT RightHandIndex2
										{
											OFFSET -5.48836 0.00000 0.00000
											CHANNELS 3 Zrotation Xrotation Yrotation
											JOINT RightHandIndex3
											{
												OFFSET -3.01859 0.00000 0.00000
												CHANNELS 3 Zrotation Xrotation Yrotation
												End site
												{
													OFFSET 0.00000 0.00000 0.00000
												}
											}
										}
									}
									JOINT RightHandMiddle1
									{
										OFFSET -14.26970 0.00000 -0.09147
										CHANNELS 3 Zrotation Xrotation Yrotation
										JOINT RightHandMiddle2
										{
											OFFSET -6.17441 0.00000 0.00000
											CHANNELS 3 Zrotation Xrotation Yrotation
											JOINT RightHandMiddle3
											{
												OFFSET -3.56743 0.00000 0.00000
												CHANNELS 3 Zrotation Xrotation Yrotation
												End site
												{
													OFFSET 0.00000 0.00000 0.00000
												}
											}
										}
									}
									JOINT RightHandRing1
									{
										OFFSET -12.69180 0.00000 -3.06433
										CHANNELS 3 Zrotation Xrotation Yrotation
										JOINT RightHandRing2
										{
											OFFSET -5.62556 0.00000 0.00000
											CHANNELS 3 Zrotation Xrotation Yrotation
											JOINT RightHandRing3
											{
												OFFSET -3.56744 0.00000 0.00000
												CHANNELS 3 Zrotation Xrotation Yrotation
												End site
												{
													OFFSET 0.00000 0.00000 0.00000
												}
											}
										}
									}
									JOINT RightHandPinky1
									{
										OFFSET -11.11390 0.00000 -6.03719
										CHANNELS 3 Zrotation Xrotation Yrotation
										JOINT RightHandPinky2
										{
											OFFSET -4.52789 0.00000 0.00000
											CHANNELS 3 Zrotation Xrotation Yrotation
											JOINT RightHandPinky3
											{
												OFFSET -2.46976 0.00000 0.00000
												CHANNELS 3 Zrotation Xrotation Yrotation
												End site
												{
													OFFSET 0.00000 0.00000 0.00000
												}
											}
										}
									}
								}
							}
						}
					}
					JOINT LeftShoulder
					{
						OFFSET 0.01000 7.91373 5.19711
						CHANNELS 3 Zrotation Xrotation Yrotation
						JOINT LeftArm
						{
							OFFSET 18.41580 0.00000 0.00000
							CHANNELS 3 Zrotation Xrotation Yrotation
							JOINT LeftForeArm
							{
								OFFSET 29.11090 0.00000 0.00000
								CHANNELS 3 Zrotation Xrotation Yrotation
								JOINT LeftHand
								{
									OFFSET 24.65040 0.00000 0.00000
									CHANNELS 3 Zrotation Xrotation Yrotation
									JOINT LeftHandThumb1
									{
										OFFSET 5.35114 -0.85590 3.97906
										CHANNELS 3 Zrotation Xrotation Yrotation
										JOINT LeftHandThumb2
										{
											OFFSET 4.52789 0.00000 0.00000
											CHANNELS 3 Zrotation Xrotation Yrotation
											JOINT LeftHandThumb3
											{
												OFFSET 2.46977 0.00000 0.00000
												CHANNELS 3 Zrotation Xrotation Yrotation
												End site
												{
													OFFSET 0.00000 0.00000 0.00000
												}
											}
										}
									}
									JOINT LeftHandIndex1
									{
										OFFSET 14.26970 0.00000 2.88139
										CHANNELS 3 Zrotation Xrotation Yrotation
										JOINT LeftHandIndex2
										{
											OFFSET 5.48836 0.00000 0.00000
											CHANNELS 3 Zrotation Xrotation Yrotation
											JOINT LeftHandIndex3
											{
												OFFSET 3.01859 0.00000 0.00000
												CHANNELS 3 Zrotation Xrotation Yrotation
												End site
												{
													OFFSET 0.00000 0.00000 0.00000
												}
											}
										}
									}
									JOINT LeftHandMiddle1
									{
										OFFSET 14.26970 0.00000 -0.09147
										CHANNELS 3 Zrotation Xrotation Yrotation
										JOINT LeftHandMiddle2
										{
											OFFSET 6.17440 0.00000 0.00000
											CHANNELS 3 Zrotation Xrotation Yrotation
											JOINT LeftHandMiddle3
											{
												OFFSET 3.56744 0.00000 0.00000
												CHANNELS 3 Zrotation Xrotation Yrotation
												End site
												{
													OFFSET 0.00000 0.00000 0.00000
												}
											}
										}
									}
									JOINT LeftHandRing1
									{
										OFFSET 12.69180 0.00000 -3.06433
										CHANNELS 3 Zrotation Xrotation Yrotation
										JOINT LeftHandRing2
										{
											OFFSET 5.62556 0.00000 0.00000
											CHANNELS 3 Zrotation Xrotation Yrotation
											JOINT LeftHandRing3
											{
												OFFSET 3.56744 0.00000 0.00000
												CHANNELS 3 Zrotation Xrotation Yrotation
												End site
												{
													OFFSET 0.00000 0.00000 0.00000
												}
											}
										}
									}
									JOINT LeftHandPinky1
									{
										OFFSET 11.11390 0.00000 -6.03719
										CHANNELS 3 Zrotation Xrotation Yrotation
										JOINT LeftHandPinky2
										{
											OFFSET 4.52789 0.00000 0.00000
											CHANNELS 3 Zrotation Xrotation Yrotation
											JOINT LeftHandPinky3
											{
												OFFSET 2.46976 0.00000 0.00000
												CHANNELS 3 Zrotation Xrotation Yrotation
												End site
												{
													OFFSET 0.00000 0.00000 0.00000
												}
											}
										}
									}
								}
							}
						}
					}
					JOINT pCube4
					{
						OFFSET 0.00000 10.91090 1.10792
						CHANNELS 3 Zrotation Xrotation Yrotation
						End site
						{
							OFFSET 0.00000 0.00000 0.00000
						}
					}
				}
			}
		}
	}
	JOINT RightUpLeg
	{
		OFFSET -9.98441 0.00000 0.00000
		CHANNELS 3 Zrotation Xrotation Yrotation
		JOINT RightLeg
		{
			OFFSET 0.00000 -42.11790 0.00000
			CHANNELS 3 Zrotation Xrotation Yrotation
			JOINT RightFoot
			{
				OFFSET 0.00000 -45.00020 -0.00001
				CHANNELS 3 Zrotation Xrotation Yrotation
				JOINT RightForeFoot
				{
					OFFSET 0.00000 -3.74820 0.00000
					CHANNELS 3 Zrotation Xrotation Yrotation
					JOINT RightToeBase
					{
						OFFSET 0.00000 0.06325 14.43120
						CHANNELS 3 Zrotation Xrotation Yrotation
						End site
						{
							OFFSET 0.00000 0.00000 0.00000
						}
					}
				}
			}
		}
	}
	JOINT LeftUpLeg
	{
		OFFSET 9.98441 0.00000 0.00000
		CHANNELS 3 Zrotation Xrotation Yrotation
		JOINT LeftLeg
		{
			OFFSET 0.00000 -42.11800 0.00000
			CHANNELS 3 Zrotation Xrotation Yrotation
			JOINT LeftFoot
			{
				OFFSET 0.00000 -45.00070 0.00000
				CHANNELS 3 Zrotation Xrotation Yrotation
				JOINT LeftForeFoot
				{
					OFFSET 0.00000 -3.74824 0.00000
					CHANNELS 3 Zrotation Xrotation Yrotation
					JOINT LeftToeBase
					{
						OFFSET 0.00000 0.06325 14.43110
						CHANNELS 3 Zrotation Xrotation Yrotation
						End site
						{
							OFFSET 0.00000 0.00000 0.00000
						}
					}
				}
			}
		}
	}
}
MOTION
Frames: 4
Frame Time: 0.050000
0.01525768323058761 -0.041116740173699956 -0.0350062110172588 0.015973348474449596 0.011576164523499905 0.035347966712501094 -4.648045880843965 -0.8008542062692655 -0.4736724445392134 -1.0046679222928814 3.483288514382874 0.4146455770842601 -1.5218588065624545 -2.3086235719373422 -0.5179756476945332 -0.7169159363801643 -0.12162031619773192 -0.7950927156647828 0.309013556002199 12.490875517095189 -0.28157153816070224 0.4142975608734733 -0.11353608628454068 -2.799148212467299 0.6202894009351961 -15.165108474899151 -0.23319884785089395 -7.03573072605135 2.3852675116282436 -12.509597167061989 58.46613920409606 14.819564472348123 29.557684437769158 5.786988885031591 0.566136284742646 102.24587052804713 20.61656647849262 -0.7765024690204915 -4.014398264907118 4.483569370372033 -0.1501327476253197 -1.6060570306529924 0.025255736345789103 -0.0014474194868822757 -56.21525740448483 0.021666662781317857 -0.011141264691863894 -56.218613247498446 -38.779916964670804 -0.04610920925795729 -0.01839292384568102 0.025243415263702444 -0.035366673279674576 -0.03411773486583742 -0.006241255011346838 0.03624154833058778 0.04603524351229865 -36.69490369461369 -0.047403154865807616 -0.0416828386523544 0.004516622241461375 -0.011689587875432464 0.012648503485160804 -0.035111274710149666 -0.043764064084790465 -0.04113752345462747 -19.745352590801122 -0.042852958269230336 0.01943386075608095 -0.000727527802605567 -0.03146669233460541 0.03563804286803438 -0.01049875203489027 -0.0327484501426185 0.0011589404002520078 24.099762683723007 -0.017820315571325143 -0.04601807615686015 28.871402453748793 0.04840275298542244 -0.019179992464858017 28.895523945982827 0.01913482370945915 0.03286473938537319 7.0771385379168725 1.6396587068201305 11.521062047384925 -63.435056541928375 22.677513279507856 -20.874634799851894 -44.53741547723121 5.4917070643451185 -94.30746273340046 -11.418083469840983 -2.286018180354957 0.7397230382461464 -0.5034347976876341 0.07832863409993858 -8.157565822401356 0.04920075015843995 -0.04338066944102905 44.57552066459142 -0.049639358766732596 0.030644237606435216 44.53887817093617 12.452440440047624 0.019927572938149403 -0.005640054175194242 -0.017505780198878017 0.024679989565412987 0.04447304018823506 -0.0027868545078368976 -0.035778749285070355 -0.03454022846381113 11.130281314673722 -0.027847189328328917 0.01731526864390838 -0.04513366098623153 -0.041411375699694275 -0.005651978829337417 0.021213322763470484 0.023696599029543002 0.02176864923001693 4.779557733718566 -0.027446207753963142 0.02712732790861837 0.0029465230573945365 0.026707490446661798 0.03566686445198073 0.03856159748505355 -0.005713450950493606 -0.048124421274944054 -5.619127356629597 -0.026469615987444864 0.04382829832328898 -6.713677450063572 -0.018007624303038768 -0.04335359826463345 -6.744187842187487 0.04480971419712416 -0.02811067097673802 0.007480760233800882 0.004101143208506983 0.00046426915987904426 8.005231628516999 3.4944651228989416 -19.19450608010924 0.03486264820822896 10.431393845715043 -0.0013868270010431519 -5.608594985769351 -15.64300796905257 3.159914270089145 0.04347646988021931 0.017135261636020152 -0.015558670521539773 0.019193764951196582 4.680158939039195 -0.04736182978684428 12.421077800366561 -8.249541748113757 6.8648903978911875 -0.025702919992800347 46.38120574745875 0.03745475128519287 -4.350719406715725 -14.793246246919576 -3.809614438834123 -0.04190734771510016 -0.0014375722512870249 -0.015939469338304188 -0.0094940681349638 -10.711952581770861 -0.03728609237234622 
-0.027487046231459613 -0.01669736154268175 -0.03742629125753863 -0.004652209373546623 -0.012654539776188849 -0.046249562402632304 -4.6658214087687195 -0.7155300888165568 -0.5198442864521734 -1.0279643458700098 3.4425043110335727 0.36779491770565836 -1.4258194363686456 -2.2852906433787807 -0.7380382390557718 -0.7210787569646941 -0.12360332550713754 -0.8091332843194079 0.2235491788359582 12.454904623318562 -0.23619915646042627 0.3428201002886812 -0.08653927692224145 -2.667659498925264 0.6577543893052509 -15.060539489928567 -0.23387408146301847 -6.894704649356704 2.357868858411731 -12.56842764882466 59.892392154362064 14.187391744754555 28.341785737610387 6.015933745750882 0.8314113569619895 101.18177743575815 21.308402228273756 -0.7513289758468047 -4.42143348877717 4.558061002573162 -0.11823179723555625 -1.5646583777611294 0.04001702666292121 -0.01211418218326422 -56.227750359852244 -0.03346650393537977 0.02600067663076352 -56.22085042671504 -38.746266291866114 0.024689831839878322 -0.030729668241674585 0.01602735598194657 -0.00012050474145065391 -0.018041300725525605 -0.04232096757616398 0.03823156361073493 -0.03104585104432775 -36.67369952552895 -0.03497825521774341 -0.012475102996497487 -0.017838296788135234 -0.00973076170212138 -0.018929856549966703 -0.0005339977719838553 0.003546229078293416 0.048061472764374905 -19.79781844616281 0.008918321580498363 0.026809614970192772 0.015491440132013838 -0.037542760638277446 -0.0016646933946993414 -0.006875690232276827 -0.039314413949271654 0.0020871435071406074 24.062062999249274 0.015861050316464065 -0.010785982565145425 28.84603806628515 0.023547674607225448 0.009910189303921957 28.890805248219515 0.03486572478784989 0.04720481552346078 7.21117401247857 1.675216619627266 11.561230248293276 -63.55718742636791 22.733870295889954 -21.12830940179333 -43.98452889210242 5.478563056446112 -93.80860209636337 -12.323387916281726 -2.8761523890269434 1.4147245268336945 -0.5106941956436247 0.0588853484533924 -8.113354367356083 -0.005943362368240247 0.02455631775702202 44.53213609406739 0.033378655096632 -0.03715747801775238 44.57351901473376 12.459860466225173 -0.0486479054695936 -0.03008519039503403 0.03869211953497565 -0.03301105544767488 -0.00961271680638292 0.011094572729880512 -0.010920445161144566 -0.03908921821149895 11.117532975113756 0.029083577838210816 -0.014758415510447235 0.007205837318215753 0.033241441719495404 -0.012918105986785139 0.01691637606826654 -0.03973994704651473 -0.02971990956436607 4.782991237417969 -0.03601654966641777 0.03880621444243816 0.004191499059855473 0.020538249234775485 0.02453725917676909 0.004165349497189216 -0.03201553519957701 0.029157223689650312 -5.563578650345132 0.026906455530111766 0.04068175157718901 -6.759496711812363 0.004503359901650732 0.016653428022982385 -6.706110267010251 -0.024102022443473908 -0.015921287438562106 -0.01943865379385045 -0.005089548504416592 0.019697422527608668 8.088869667285254 3.5225419258942505 -19.243909816396325 0.04806693521874692 10.35029415671122 -0.01852017556406017 -5.608403447194654 -15.624562465866687 3.1753804055230335 -0.0002980846602508473 0.031576449032311986 -0.03299976980333517 -0.034763979882753274 4.730622185676103 -0.01311080454761302 12.471939879827923 -8.216458982946447 6.860530446718542 0.0040958971447061674 46.35160767800456 0.024287933786823233 -4.347530329541131 -14.793234261693787 -3.799889127817094 -0.02262941241790282 -0.0012012354277661902 0.023163499891994142 -0.018529983223739322 -10.787730816018703 -0.04840337947934688 
0.04119513427707286 0.021028474273226433 0.03204845136668924 -0.02846941323075049 -0.023106045306692354 0.04484425081769154 -4.579162748248085 -0.6195259693634019 -0.5300980749691777 -0.9674412228637533 3.416648701794268 0.3939098799767713 -1.455568905167251 -2.217008918725451 -0.8553145858222633 -0.6661256546698239 -0.10535699279769399 -0.791006535847873 0.2506190928100016 12.468924652417776 -0.35821433538055764 0.34673077731676494 0.019159888642429283 -2.781915572786924 0.6722723158398323 -14.908554154975537 -0.24431359281341705 -6.868353601236508 2.367725939516008 -12.548726843826014 60.997332608402154 14.474472908663515 28.121875436815262 6.41539138844009 1.0394242017965214 100.32625913316356 21.74488822163494 -0.7026912545947555 -4.762596352190192 4.487262345953809 -0.13932333039182843 -1.6019419772312453 0.022286399904688243 -0.0006694678414548151 -56.25044617955924 -0.040535668925349065 0.01900551670060635 -56.23225524940811 -38.766786633165005 -0.040843810243025976 0.04886732397507165 -0.015705519760340587 -0.013779277920390519 -0.010147470844887669 -0.02155236851188146 -0.009945298469602876 0.03321455692552918 -36.65000656155514 0.010557440322083752 0.02673877549252997 0.017386649430404567 0.009595295733893465 0.0025379525530999343 0.015243354343106155 -0.030747991162540317 0.04904886418628941 -19.71454320463347 -0.0478143707429162 0.046213942248541647 0.00032238213120310845 0.01759998072350582 -0.03221829648700412 -0.03645628186395297 0.005710133884533895 -0.028573561555966593 24.098253436975945 -0.016110403049050596 0.0003797054685948718 28.82471602148457 0.02054224100217019 -0.010431393221132694 28.88050983096434 0.021716816741776845 -0.00726335994360875 7.451653547403977 1.7156868220621708 11.38532143852104 -63.03683426022655 23.229322811484305 -22.59738417777723 -39.67076347312625 4.330812383974618 -93.31441318972564 -13.069576672914657 -3.769150750027852 2.259492386929443 -0.45025803461972846 0.02294229026107933 -8.089144418790031 0.0321449494112441 -0.017887478823227644 44.552720170925426 -0.04975499389090237 0.03958915823265697 44.55967292371743 12.438335637260822 0.01198414432372645 0.01765554011279429 -0.012227952293511623 0.008052907657928664 -0.02641693361778197 -0.0413917226142778 0.00334722603995933 0.006380579846612956 11.154157358993034 0.014683450510676254 0.04047029381605364 0.007273087210038172 0.014012448566337921 -0.015605457999598213 -0.0200815693456276 0.016547836225707546 -0.038459397651914286 4.816266412680033 -0.04701900923630931 -0.02214198661737607 -0.015795671733768606 -0.04466279906059454 0.045453404669104316 -0.01163480781875182 0.004524415810197451 0.04600431505187639 -5.569136534097319 -0.04695775632290852 -0.004931594720012154 -6.7230894787655355 -0.03144435204686625 -0.0203835268121293 -6.676741970987088 0.008091279119044965 -0.004262468760099647 -0.0035540135596740818 -0.03866263299242545 -0.04412416492566599 8.035970748258821 3.488799159163785 -19.204969060009528 0.026618834783461973 10.42255514931852 0.02019017818614361 -5.639191667502643 -15.617487079791239 3.1523005820613474 0.015255119696449966 0.013530800826789698 0.033790200467050654 0.006266670063131024 4.739622768837584 -0.025739994469299112 12.47735234672077 -8.188821583934223 6.878000965617195 0.02459073320656078 46.391058181625496 -0.020628315593968924 -4.280819113643463 -14.795124461538895 -3.836087070010182 0.014952390602345192 0.0047051014519279045 -0.013997353861336666 -0.0118119227617865 -10.760143112542863 -0.016136443986207297 
-0.026404075662132723 0.019420389579375728 0.018061149104395758 -0.010019934708003145 0.036506049071537976 -0.00015703306196299257 -4.506619273177746 -0.5574232843500825 -0.568461362234691 -0.9850197539937378 3.412958378380543 0.3862701318855615 -1.4373425051042517 -2.25277062603772 -0.9909084061269327 -0.6572520437682787 -0.029590808897650703 -0.8090693800443312 0.21373350989798023 12.546255764967817 -0.4233448464473601 0.3810401836429313 0.13138348240306422 -2.903352181078519 0.6286793056124697 -14.720703875729065 -0.22040029810461065 -6.834964917917625 2.4120615898052025 -12.37224267027395 61.61412004820235 15.672976187026377 28.468275671722015 6.846787080780034 1.3115435010475023 99.64270435621555 22.094377665956316 -0.6501803917787601 -5.0807900768551235 4.509207005096935 -0.1096577577069027 -1.6398231830519165 -0.04433330772017759 0.005255202043139982 -56.18510310928046 -0.023143687288653948 0.023482120380981773 -56.25163074200098 -38.73248109962624 -0.045599306522603814 0.02559404413395872 0.044101985029443055 0.006722058566763813 0.04142905479656482 0.01951037427293878 0.03253131841372054 0.026614950168958658 -36.67032546469208 0.03239859118788347 -0.049942501818006795 -0.025528106379577267 -0.04139507909640814 -0.049924615922566334 0.047973999913637225 -0.007114027911044095 -0.023201601660198884 -19.78442311180372 0.018356911801448935 0.004769642818068265 -0.007316541042557239 0.03900998501446311 0.0318094961207778 0.02228992766913507 -0.010011484296237907 0.021701182476211868 24.018230855859365 -0.03349273653482264 -0.022980452900447264 28.834426337266123 0.013628824660916009 0.035356277951513276 28.868262563006514 0.04072685222218761 0.005788258969941435 7.677595617802235 1.7632424652262992 11.272296103208102 -62.185851666325064 23.78608097866369 -24.47087277874521 -34.045840037442936 2.6861542039455526 -93.42953633618625 -13.710574674412571 -4.813087076043561 3.153671431910668 -0.47363321129839747 0.027482436017519242 -8.168171211514082 -0.042670802034192296 0.024263120742241736 44.53552587328212 0.03260215490485195 0.025698931324782855 44.60194575944979 12.439502919900066 0.006082817717789066 -0.03348130062425027 -0.006957364704310266 -0.01354169046513685 0.045044588502090914 0.014466217180290465 -0.005022016589035105 0.04702168758732134 11.076468583905058 0.0366119390738151 -0.004972315852614624 0.04743012388379126 0.006925524238380316 -0.015718117117226114 -0.010343812535247654 0.0179354573766409 0.037085675354929716 4.783729392108229 -0.03174587813621777 0.04642330736748125 -0.003925117280977865 -0.03311464653833431 0.007222072672890184 0.003207051510318261 -0.04691382769634675 0.025274114262286523 -5.625178280417398 -0.034114470590071035 -0.044963467888671727 -6.736527473690702 -0.025118290991125117 -0.023767191661921157 -6.696110783469602 0.03436928413489964 0.012467817931368993 -0.0031194426440806 -0.028905796763587944 0.04784894123141907 8.030752089158861 3.452953363992062 -19.26555934077778 -0.013358551785257728 10.394594889185102 0.011628819538159214 -5.620226507451147 -15.645549218933526 3.239289930307974 0.04276186916225797 0.006997148114408074 -0.015960444106938882 0.016392485038245374 4.745932114564432 0.02459904374729847 12.427456450558823 -8.198795170908813 6.890036838717921 -0.021619508235177512 46.35963840102038 -0.007053402637398577 -4.289803239819397 -14.746489559760072 -3.8506639709825903 -0.017069997229265454 -0.025662176157278924 -0.011624429418142132 0.030797717236366196 -10.742262825757317 -0.023130812249311582 
